<svg xmlns="http://www.w3.org/2000/svg" width="24" height="24" viewBox="0 0 24 24">
    <g fill="none" fill-rule="evenodd">
        <g fill-rule="nonzero">
            <g>
                <path stroke="#D1D5D9" d="M12 .5c3.17 0 6.045 1.29 8.127 3.373C22.21 5.955 23.5 8.83 23.5 12c0 3.17-1.29 6.045-3.373 8.127C18.045 22.21 15.17 23.5 12 23.5c-3.17 0-6.045-1.29-8.127-3.373C1.79 18.045.5 15.17.5 12c0-3.17 1.29-6.045 3.373-8.127C5.955 1.79 8.83.5 12 .5z" transform="translate(-21.000000, -273.000000) translate(21.000000, 273.000000)"/>
                <path fill="#D1D5D9" d="M17.688 7.177L10 14.865 6.978 11.855 5.333 13.5 10 18.167 19.333 8.833z" transform="translate(-21.000000, -273.000000) translate(21.000000, 273.000000)"/>
            </g>
        </g>
    </g>
</svg>
