<svg xmlns="http://www.w3.org/2000/svg" xmlns:xlink="http://www.w3.org/1999/xlink" width="162" height="32" viewBox="0 0 162 32">
    <defs>
        <path id="advspnv7fa" d="M0 0L32.1 0 32.1 32 0 32z"/>
    </defs>
    <g fill="none" fill-rule="evenodd">
        <g>
            <g>
                <g transform="translate(-107.000000, -390.000000) translate(107.000000, 390.000000)">
                    <mask id="4th5iyvfxb" fill="#fff">
                        <use xlink:href="#advspnv7fa"/>
                    </mask>
                    <path fill="#0958C5" d="M16.05 0C7.186 0 0 7.163 0 16s7.186 16 16.05 16c8.865 0 16.05-7.163 16.05-16S24.915 0 16.05 0m0 6.666c5.163 0 9.363 4.188 9.363 9.334 0 5.147-4.2 9.333-9.363 9.333-5.163 0-9.362-4.186-9.362-9.333 0-5.146 4.2-9.334 9.362-9.334" mask="url(#4th5iyvfxb)"/>
                </g>
                <path fill="#0958C5" d="M53.553.666H28.14c-1.472 0-2.675 1.201-2.675 2.667v25.334c0 1.466 1.203 2.666 2.675 2.666h25.413c1.47 0 2.675-1.2 2.675-2.666V3.333c0-1.466-1.204-2.667-2.675-2.667zm-21.4 24H49.54V7.334H32.152v17.334z" transform="translate(-107.000000, -390.000000) translate(107.000000, 390.000000)"/>
                <path fill="#0F26BC" d="M32.1 16c0-5.318-2.604-10.026-6.608-12.936-.009.09-.027.177-.027.269v25.334c0 .092.018.18.027.269C29.496 26.026 32.1 21.318 32.1 16" transform="translate(-107.000000, -390.000000) translate(107.000000, 390.000000)"/>
                <path fill="#0958C5" d="M85.96 25.67c0 1.266-1.038 2.077-2.685 2.077-1.723 0-2.635-.862-2.635-2.076V6.52c0-1.266 1.038-2.077 2.685-2.077 1.724 0 2.636.811 2.636 2.077v19.15zM109.778 23.061c1.394 0 2.078.963 2.078 2.33 0 1.241-.684 2.356-2.078 2.356H91.736c-1.191 0-2.078-.887-2.078-2.077v-3.977c0-1.697 1.166-2.507 2.813-2.507 1.723 0 2.762.81 2.762 2.507v1.368h14.545zm-20.83-6.433c-.33-1.216.203-2.356 1.597-2.508 4.105-.456 6.968-2.38 7.222-4.964H91.56c-1.42 0-2.282-.963-2.282-2.23 0-1.266.863-2.228 2.282-2.228h9.578c1.268 0 2.078.633 2.078 1.798 0 1.089-.076 2.128-.253 3.065h3.04v-3.04c0-1.266 1.04-2.102 2.687-2.102 1.723 0 2.635.81 2.635 2.077V18.45c0 1.267-1.039 2.077-2.686 2.077-1.723 0-2.636-.81-2.636-2.077V14.12h-5.017c-1.875 2.381-4.89 3.774-9.072 4.331-1.749.228-2.636-.607-2.965-1.823z" transform="translate(-107.000000, -390.000000) translate(107.000000, 390.000000)"/>
                <path fill="#000" d="M119.81 9.763h11.404v3.952H119.81V9.763zm-2.99 8.765h17.384c1.292 0 2.078-.558 2.078-2.078V7.027c0-1.519-.786-2.076-2.079-2.076H116.82c-1.292 0-2.078.557-2.078 2.076v9.423c0 1.52.786 2.078 2.078 2.078zM135.294 22.707h-6.816V21.01c0-1.444-1.09-2.052-2.94-2.052-1.85 0-2.99.608-2.99 2.052v1.697h-6.767c-1.292 0-2.154.683-2.154 2.28 0 1.595.862 2.33 2.154 2.33h19.513c1.292 0 2.154-.684 2.154-2.28 0-1.596-.862-2.33-2.154-2.33M156.552 24.075H145.4v-1.672h11.151v1.672zm3.37-5.598H142.03c-1.19 0-2.077.886-2.077 2.076v5.37c0 1.191.886 2.077 2.077 2.077H159.922c1.19 0 2.078-.886 2.078-2.077v-5.37c0-1.19-.888-2.076-2.079-2.076zM159.364 4.419c-1.647 0-2.686.836-2.686 2.102v8.865c0 1.267.913 2.077 2.636 2.077 1.647 0 2.686-.81 2.686-2.077v-8.89c0-1.266-.913-2.077-2.636-2.077M148.627 11.024c0 .887-.86 1.567-1.77 1.567-.913 0-1.773-.653-1.773-1.541V9.745c0-.862.86-1.49 1.772-1.49.886 0 1.771.628 1.771 1.49v1.279zM146.829 4c-3.776 0-6.876 2.35-6.876 5.98v.835c0 3.629 3.1 6.058 6.876 6.058 3.777 0 6.929-2.429 6.929-6.058V9.98c0-3.63-3.152-5.98-6.929-5.98z" transform="translate(-107.000000, -390.000000) translate(107.000000, 390.000000)"/>
                <path fill="#0958C5" d="M72.987 15.738c0-3.703-.503-4.655-1.403-4.655-.872 0-1.375.952-1.375 4.655 0 3.729.503 4.654 1.375 4.654.9 0 1.403-.925 1.403-4.654m5.847 0c0 7.114-2.54 10.367-7.25 10.367-4.683 0-7.223-3.253-7.223-10.367 0-7.088 2.54-10.34 7.223-10.34 4.71 0 7.25 3.252 7.25 10.34" transform="translate(-107.000000, -390.000000) translate(107.000000, 390.000000)"/>
            </g>
        </g>
    </g>
</svg>
